<?xml version="1.0" encoding="UTF-8"?>
<svg width="512" height="512" viewBox="0 0 512 512" xmlns="http://www.w3.org/2000/svg">
    <!-- Background gradient -->
    <defs>
        <linearGradient id="grad" x1="0%" y1="0%" x2="100%" y2="100%">
            <stop offset="0%" style="stop-color:#06b6d4;stop-opacity:1" />
            <stop offset="50%" style="stop-color:#a855f7;stop-opacity:1" />
            <stop offset="100%" style="stop-color:#f43f5e;stop-opacity:1" />
        </linearGradient>
    </defs>
    <!-- Rounded square background -->
    <rect x="32" y="32" width="448" height="448" rx="64" fill="url(#grad)"/>
    <!-- Paintbrush icon -->
    <path d="M384 128c-17.7 0-32 14.3-32 32s14.3 32 32 32 32-14.3 32-32-14.3-32-32-32zm-96 96c-17.7 0-32 14.3-32 32s14.3 32 32 32 32-14.3 32-32-14.3-32-32-32zm-96 96c-17.7 0-32 14.3-32 32s14.3 32 32 32 32-14.3 32-32-14.3-32-32-32z" fill="white"/>
</svg> 